<mxfile host="app.diagrams.net" modified="2024-04-19T19:56:50.790Z" agent="Mozilla/5.0 (Windows NT 10.0; Win64; x64) AppleWebKit/537.36 (KHTML, like Gecko) Chrome/123.0.0.0 Safari/537.36" etag="anZu7hEhwbIcNw0ZeWqM" version="24.2.2" type="github">
  <diagram name="Page-1" id="Nb6X_47J_qrHw2PWxK47">
    <mxGraphModel dx="2002" dy="1755" grid="0" gridSize="15" guides="1" tooltips="1" connect="1" arrows="1" fold="1" page="1" pageScale="1" pageWidth="850" pageHeight="1100" background="#FFF2CC" math="0" shadow="1">
      <root>
        <object label="" id="0">
          <mxCell />
        </object>
        <mxCell id="1" parent="0" />
        <mxCell id="pU_Kl8a3fYDby-MXZmW--5" value="" style="ellipse;shape=cloud;whiteSpace=wrap;html=1;fontSize=16;fillColor=#B8B8B8;fontColor=#333333;strokeColor=#666666;sketch=1;curveFitting=1;jiggle=2;shadow=1;" vertex="1" parent="1">
          <mxGeometry y="50" width="550" height="190" as="geometry" />
        </mxCell>
        <mxCell id="pU_Kl8a3fYDby-MXZmW--6" value="Эндоплазмотический ретикулюм" style="text;html=1;align=center;verticalAlign=middle;whiteSpace=wrap;rounded=0;fontSize=15;" vertex="1" parent="1">
          <mxGeometry x="70" y="110" width="190" height="30" as="geometry" />
        </mxCell>
        <mxCell id="pU_Kl8a3fYDby-MXZmW--7" value="&lt;font style=&quot;font-size: 20px;&quot;&gt;Пре-проинсулин&lt;/font&gt;" style="text;html=1;align=center;verticalAlign=middle;whiteSpace=wrap;rounded=0;fontSize=20;" vertex="1" parent="1">
          <mxGeometry x="262" y="100" width="207" height="30" as="geometry" />
        </mxCell>
        <mxCell id="pU_Kl8a3fYDby-MXZmW--8" value="" style="ellipse;shape=cloud;whiteSpace=wrap;html=1;fillColor=#e1d5e7;strokeColor=#9673a6;sketch=1;curveFitting=1;jiggle=2;shadow=1;" vertex="1" parent="1">
          <mxGeometry x="440" y="165" width="380" height="150" as="geometry" />
        </mxCell>
        <mxCell id="pU_Kl8a3fYDby-MXZmW--9" value="Аппарат Гольджи" style="text;html=1;align=center;verticalAlign=middle;whiteSpace=wrap;rounded=0;fontSize=14;" vertex="1" parent="1">
          <mxGeometry x="520" y="210" width="125" height="30" as="geometry" />
        </mxCell>
        <mxCell id="pU_Kl8a3fYDby-MXZmW--10" value="&lt;font style=&quot;font-size: 14px;&quot;&gt;Проинсулин&lt;/font&gt;" style="text;html=1;align=center;verticalAlign=middle;whiteSpace=wrap;rounded=0;" vertex="1" parent="1">
          <mxGeometry x="690" y="210" width="60" height="30" as="geometry" />
        </mxCell>
        <mxCell id="pU_Kl8a3fYDby-MXZmW--11" value="" style="ellipse;shape=cloud;whiteSpace=wrap;html=1;fillColor=#9AC7BF;strokeColor=#82b366;sketch=1;curveFitting=1;jiggle=2;shadow=1;" vertex="1" parent="1">
          <mxGeometry x="180" y="300" width="370" height="110" as="geometry" />
        </mxCell>
        <mxCell id="pU_Kl8a3fYDby-MXZmW--12" value="&lt;font style=&quot;font-size: 16px;&quot;&gt;Гранула&lt;/font&gt;" style="text;html=1;align=center;verticalAlign=middle;whiteSpace=wrap;rounded=0;" vertex="1" parent="1">
          <mxGeometry x="345" y="315" width="60" height="30" as="geometry" />
        </mxCell>
        <mxCell id="pU_Kl8a3fYDby-MXZmW--28" value="" style="edgeStyle=orthogonalEdgeStyle;rounded=0;orthogonalLoop=1;jettySize=auto;html=1;curved=0;" edge="1" parent="1" source="pU_Kl8a3fYDby-MXZmW--13" target="pU_Kl8a3fYDby-MXZmW--15">
          <mxGeometry relative="1" as="geometry" />
        </mxCell>
        <mxCell id="pU_Kl8a3fYDby-MXZmW--13" value="&lt;font style=&quot;font-size: 14px;&quot;&gt;сигнальный пептид&lt;/font&gt;" style="html=1;points=[[0,0,0,0,5],[0,1,0,0,-5],[1,0,0,0,5],[1,1,0,0,-5]];perimeter=orthogonalPerimeter;outlineConnect=0;targetShapes=umlLifeline;portConstraint=eastwest;newEdgeStyle={&quot;curved&quot;:0,&quot;rounded&quot;:0};direction=south;fillColor=#cdeb8b;strokeColor=#36393d;" vertex="1" parent="1">
          <mxGeometry x="54" y="160" width="133" height="20" as="geometry" />
        </mxCell>
        <mxCell id="pU_Kl8a3fYDby-MXZmW--14" value="&lt;font style=&quot;font-size: 14px;&quot;&gt;В-цепь&lt;/font&gt;" style="html=1;points=[[0,0,0,0,5],[0,1,0,0,-5],[1,0,0,0,5],[1,1,0,0,-5]];perimeter=orthogonalPerimeter;outlineConnect=0;targetShapes=umlLifeline;portConstraint=eastwest;newEdgeStyle={&quot;curved&quot;:0,&quot;rounded&quot;:0};direction=south;fillColor=#ffe6cc;strokeColor=#d79b00;" vertex="1" parent="1">
          <mxGeometry x="187" y="160" width="90" height="20" as="geometry" />
        </mxCell>
        <mxCell id="pU_Kl8a3fYDby-MXZmW--15" value="&lt;font style=&quot;font-size: 14px;&quot;&gt;С-пептид&lt;/font&gt;" style="html=1;points=[[0,0,0,0,5],[0,1,0,0,-5],[1,0,0,0,5],[1,1,0,0,-5]];perimeter=orthogonalPerimeter;outlineConnect=0;targetShapes=umlLifeline;portConstraint=eastwest;newEdgeStyle={&quot;curved&quot;:0,&quot;rounded&quot;:0};direction=south;fillColor=#ffcd28;gradientColor=#ffa500;strokeColor=#d79b00;" vertex="1" parent="1">
          <mxGeometry x="277" y="160" width="110" height="20" as="geometry" />
        </mxCell>
        <mxCell id="pU_Kl8a3fYDby-MXZmW--16" value="&lt;font style=&quot;font-size: 14px;&quot;&gt;А-цепь&lt;/font&gt;" style="html=1;points=[[0,0,0,0,5],[0,1,0,0,-5],[1,0,0,0,5],[1,1,0,0,-5]];perimeter=orthogonalPerimeter;outlineConnect=0;targetShapes=umlLifeline;portConstraint=eastwest;newEdgeStyle={&quot;curved&quot;:0,&quot;rounded&quot;:0};direction=south;fillColor=#e6d0de;gradientColor=#d5739d;strokeColor=#996185;" vertex="1" parent="1">
          <mxGeometry x="387" y="160" width="130" height="20" as="geometry" />
        </mxCell>
        <mxCell id="pU_Kl8a3fYDby-MXZmW--21" value="&lt;font style=&quot;font-size: 14px;&quot;&gt;В-цепь&lt;/font&gt;" style="html=1;points=[[0,0,0,0,5],[0,1,0,0,-5],[1,0,0,0,5],[1,1,0,0,-5]];perimeter=orthogonalPerimeter;outlineConnect=0;targetShapes=umlLifeline;portConstraint=eastwest;newEdgeStyle={&quot;curved&quot;:0,&quot;rounded&quot;:0};direction=south;fillColor=#ffe6cc;strokeColor=#d79b00;" vertex="1" parent="1">
          <mxGeometry x="530" y="250" width="80" height="20" as="geometry" />
        </mxCell>
        <mxCell id="pU_Kl8a3fYDby-MXZmW--22" value="&lt;font style=&quot;font-size: 14px;&quot;&gt;С-пептид&lt;/font&gt;" style="html=1;points=[[0,0,0,0,5],[0,1,0,0,-5],[1,0,0,0,5],[1,1,0,0,-5]];perimeter=orthogonalPerimeter;outlineConnect=0;targetShapes=umlLifeline;portConstraint=eastwest;newEdgeStyle={&quot;curved&quot;:0,&quot;rounded&quot;:0};direction=south;fillColor=#fff2cc;gradientColor=#ffd966;strokeColor=#d6b656;" vertex="1" parent="1">
          <mxGeometry x="610" y="250" width="110" height="20" as="geometry" />
        </mxCell>
        <mxCell id="pU_Kl8a3fYDby-MXZmW--23" value="&lt;font style=&quot;font-size: 14px;&quot;&gt;А-цепь&lt;/font&gt;" style="html=1;points=[[0,0,0,0,5],[0,1,0,0,-5],[1,0,0,0,5],[1,1,0,0,-5]];perimeter=orthogonalPerimeter;outlineConnect=0;targetShapes=umlLifeline;portConstraint=eastwest;newEdgeStyle={&quot;curved&quot;:0,&quot;rounded&quot;:0};direction=south;fillColor=#e6d0de;gradientColor=#d5739d;strokeColor=#996185;" vertex="1" parent="1">
          <mxGeometry x="720" y="250" width="70" height="20" as="geometry" />
        </mxCell>
        <mxCell id="pU_Kl8a3fYDby-MXZmW--30" value="В-цепь" style="html=1;points=[[0,0,0,0,5],[0,1,0,0,-5],[1,0,0,0,5],[1,1,0,0,-5]];perimeter=orthogonalPerimeter;outlineConnect=0;targetShapes=umlLifeline;portConstraint=eastwest;newEdgeStyle={&quot;curved&quot;:0,&quot;rounded&quot;:0};direction=south;fillColor=#ffe6cc;strokeColor=#d79b00;" vertex="1" parent="1">
          <mxGeometry x="345" y="345" width="80" height="15" as="geometry" />
        </mxCell>
        <mxCell id="pU_Kl8a3fYDby-MXZmW--31" value="А-цепь" style="html=1;points=[[0,0,0,0,5],[0,1,0,0,-5],[1,0,0,0,5],[1,1,0,0,-5]];perimeter=orthogonalPerimeter;outlineConnect=0;targetShapes=umlLifeline;portConstraint=eastwest;newEdgeStyle={&quot;curved&quot;:0,&quot;rounded&quot;:0};direction=south;fillColor=#e6d0de;gradientColor=#d5739d;strokeColor=#996185;" vertex="1" parent="1">
          <mxGeometry x="345" y="375" width="80" height="15" as="geometry" />
        </mxCell>
        <mxCell id="pU_Kl8a3fYDby-MXZmW--35" value="" style="line;strokeWidth=2;direction=south;html=1;" vertex="1" parent="1">
          <mxGeometry x="350" y="360" width="10" height="15" as="geometry" />
        </mxCell>
        <mxCell id="pU_Kl8a3fYDby-MXZmW--39" value="" style="line;strokeWidth=2;direction=south;html=1;" vertex="1" parent="1">
          <mxGeometry x="415" y="360" width="10" height="15" as="geometry" />
        </mxCell>
        <mxCell id="pU_Kl8a3fYDby-MXZmW--41" value="" style="verticalLabelPosition=bottom;verticalAlign=top;html=1;shape=mxgraph.basic.partConcEllipse;startAngle=0.25;endAngle=0.1;arcWidth=0.5;fillColor=#fff2cc;gradientColor=#ffd966;strokeColor=#d6b656;" vertex="1" parent="1">
          <mxGeometry x="450" y="332.5" width="40" height="40" as="geometry" />
        </mxCell>
        <mxCell id="pU_Kl8a3fYDby-MXZmW--42" value="" style="shape=mxgraph.signs.healthcare.kidney;html=1;pointerEvents=1;fillColor=#FFCC99;strokeColor=none;verticalLabelPosition=bottom;verticalAlign=top;align=center;fontColor=#663300;shadow=1;" vertex="1" parent="1">
          <mxGeometry x="690" y="435" width="71" height="98" as="geometry" />
        </mxCell>
        <mxCell id="pU_Kl8a3fYDby-MXZmW--45" value="&lt;font color=&quot;#ffffff&quot;&gt;Печень&lt;/font&gt;" style="rounded=1;whiteSpace=wrap;html=1;fillColor=#CE6950;strokeColor=#36393d;" vertex="1" parent="1">
          <mxGeometry x="247" y="445" width="148" height="40" as="geometry" />
        </mxCell>
        <mxCell id="pU_Kl8a3fYDby-MXZmW--46" value="&lt;font style=&quot;font-size: 19px;&quot;&gt;C-пептид T 1/2&lt;/font&gt;&lt;div&gt;&lt;font style=&quot;font-size: 19px;&quot;&gt;&amp;nbsp;30 min&lt;/font&gt;&lt;div&gt;&lt;br&gt;&lt;/div&gt;&lt;/div&gt;" style="whiteSpace=wrap;html=1;fillColor=#F8BBA9;strokeColor=#b85450;gradientColor=#ea6b66;rounded=1;" vertex="1" parent="1">
          <mxGeometry x="435" y="429.5" width="180" height="60" as="geometry" />
        </mxCell>
        <mxCell id="pU_Kl8a3fYDby-MXZmW--47" value="&lt;font style=&quot;font-size: 21px;&quot;&gt;Инсулин T 1/2&amp;nbsp;&lt;/font&gt;&lt;div&gt;&lt;font style=&quot;font-size: 21px;&quot;&gt;3 min&lt;/font&gt;&lt;div style=&quot;font-size: 21px;&quot;&gt;&lt;br&gt;&lt;/div&gt;&lt;/div&gt;" style="whiteSpace=wrap;html=1;fillColor=#f8cecc;strokeColor=#b85450;gradientColor=#ea6b66;rounded=1;" vertex="1" parent="1">
          <mxGeometry x="29" y="414" width="170" height="81" as="geometry" />
        </mxCell>
        <mxCell id="pU_Kl8a3fYDby-MXZmW--48" value="С-пептид: выводится почками;&lt;div&gt;в моче только 10% неизменённого протеина&amp;nbsp;&lt;/div&gt;&lt;div&gt;от изначального количества&amp;nbsp;&lt;/div&gt;" style="rounded=1;whiteSpace=wrap;html=1;fillColor=#f9f7ed;strokeColor=#36393d;" vertex="1" parent="1">
          <mxGeometry x="510" y="540" width="270" height="60" as="geometry" />
        </mxCell>
        <mxCell id="pU_Kl8a3fYDby-MXZmW--49" value="&lt;font style=&quot;font-size: 29px;&quot;&gt;С-пептид - многообещающий инструмент&amp;nbsp;&lt;/font&gt;" style="rounded=1;whiteSpace=wrap;html=1;fillColor=#AB0000;strokeColor=#82b366;gradientColor=none;fontColor=#FFFFFF;glass=0;shadow=1;" vertex="1" parent="1">
          <mxGeometry width="850" height="50" as="geometry" />
        </mxCell>
        <mxCell id="pU_Kl8a3fYDby-MXZmW--51" value="" style="verticalLabelPosition=bottom;verticalAlign=top;html=1;shape=mxgraph.basic.x;fillColor=#f8cecc;strokeColor=#b85450;gradientColor=#ea6b66;" vertex="1" parent="1">
          <mxGeometry x="80" y="152.5" width="30" height="35" as="geometry" />
        </mxCell>
        <mxCell id="pU_Kl8a3fYDby-MXZmW--59" value="" style="shape=image;html=1;verticalAlign=top;verticalLabelPosition=bottom;labelBackgroundColor=#ffffff;imageAspect=0;aspect=fixed;image=https://cdn3.iconfinder.com/data/icons/christmas-and-chocolate/700/5-128.png;strokeColor=#FFFFFF;fontColor=#1A1A1A;fillColor=#EEEEEE;" vertex="1" parent="1">
          <mxGeometry x="180" y="512" width="128" height="128" as="geometry" />
        </mxCell>
        <mxCell id="pU_Kl8a3fYDby-MXZmW--61" value="" style="verticalLabelPosition=bottom;verticalAlign=top;html=1;shape=mxgraph.basic.smiley;strokeColor=#660000;fontColor=#1A1A1A;fillColor=#FFCC99;" vertex="1" parent="1">
          <mxGeometry x="29" y="533" width="100" height="100" as="geometry" />
        </mxCell>
        <mxCell id="pU_Kl8a3fYDby-MXZmW--63" value="" style="shape=image;html=1;verticalAlign=top;verticalLabelPosition=bottom;labelBackgroundColor=#ffffff;imageAspect=0;aspect=fixed;image=https://cdn3.iconfinder.com/data/icons/clinical-3/96/blood-test-128.png;strokeColor=#FFFFFF;fontColor=#1A1A1A;fillColor=#EEEEEE;" vertex="1" parent="1">
          <mxGeometry x="370" y="540" width="93" height="93" as="geometry" />
        </mxCell>
      </root>
    </mxGraphModel>
  </diagram>
</mxfile>
